<svg width="163" height="44" viewBox="0 0 163 44" fill="none" xmlns="http://www.w3.org/2000/svg">
<path d="M108.451 0V32.0505C112.386 32.2344 116.311 32.4567 120.224 32.719V39.5143C114.017 39.0985 107.804 38.783 101.587 38.5679V0H108.451ZM163 0.00383827L154.061 20.8245L162.998 43.9942L162.988 43.9984C160.382 43.626 157.774 43.2717 155.164 42.9355L150.146 29.9315L145.08 41.7284C142.676 41.4616 140.271 41.21 137.865 40.9735L146.579 20.6851L138.598 0.00415813H146.024L150.492 11.5778L155.461 0.00383827H163ZM78.0278 38.2311V0.00351841H97.1898V6.85995H84.8923V15.7455H94.1969V22.5409H84.8923V38.2298L78.0278 38.2311ZM52.3958 6.86027V0.00319856H73.6272V6.85995H66.4434V38.4169C64.1522 38.4777 61.8635 38.5487 59.5796 38.6354V6.86027H52.3958ZM28.9289 40.6108V0.00447798H47.9955V6.86059H35.7924V16.1479C38.5959 16.1118 42.5821 16.0712 45.0621 16.0769V22.8729C41.9578 22.8345 38.4536 22.9157 35.7924 22.9423V33.2301C39.8571 32.9083 43.925 32.629 47.9955 32.3921V39.1881C41.6326 39.5569 35.2762 40.0314 28.9289 40.6114V40.6108ZM15.4633 24.9021L15.463 0.00319856H22.3275V41.2518C19.8182 41.5109 17.3133 41.7869 14.8132 42.0783L6.86413 19.1351V43.0609C4.57426 43.3603 2.28618 43.6733 0 44V0.00383827H6.52349L15.4633 24.9021ZM125.887 39.9241V0.00383827H132.752V40.4937C130.467 40.289 128.179 40.1 125.887 39.9241Z" fill="#DB202C"/>
</svg>
